solid Created by Gmsh
facet normal 0 -0 1
  outer loop
    vertex 3989.894122634729 1842.630000000007 0
    vertex 4010.662428893049 2465.469110483396 0
    vertex 3354.496251005184 2259.799969465932 0
  endloop
endfacet
facet normal 0 0 1
  outer loop
    vertex 3354.496251005184 2259.799969465932 0
    vertex 3440.697327390494 1679.174641125938 0
    vertex 3989.894122634729 1842.630000000007 0
  endloop
endfacet
facet normal -0 0 1
  outer loop
    vertex 3310.229225785222 193.81061908885 0
    vertex 3989.894122634724 -32.36999999999398 0
    vertex 3924.864295237381 560.735851833065 0
  endloop
endfacet
facet normal 0 0 1
  outer loop
    vertex 781.1599999999978 157.5347358083533 0
    vertex 469.0152663908939 680.1424155879195 0
    vertex 122.4734255089604 59.00013038493569 0
  endloop
endfacet
facet normal 0 0 1
  outer loop
    vertex 3924.864295237381 560.735851833065 0
    vertex 3418.273205982628 772.3660820558092 0
    vertex 3310.229225785222 193.81061908885 0
  endloop
endfacet
facet normal 0 0 1
  outer loop
    vertex 469.0152663908939 680.1424155879195 0
    vertex -46.16149381244645 592.6299999999919 0
    vertex 122.4734255089604 59.00013038493569 0
  endloop
endfacet
facet normal 0 0 1
  outer loop
    vertex 4531.16 1530.130000000008 0
    vertex 3845.544730980227 1214.121235909742 0
    vertex 4531.16 905.1300000000083 0
  endloop
endfacet
facet normal 0 -0 1
  outer loop
    vertex 420.5260968606146 1789.059759739062 0
    vertex 719.0009708393745 2339.513766549894 0
    vertex 78.58596094354016 2388.41967201165 0
  endloop
endfacet
facet normal -0 0 1
  outer loop
    vertex 719.0009708393745 2339.513766549894 0
    vertex 1388.912216586209 2330.50488518468 0
    vertex 1080.61926781824 2870.0547869518 0
  endloop
endfacet
facet normal 0 0 1
  outer loop
    vertex 78.58596094354016 2388.41967201165 0
    vertex -82.15222737102772 1842.629999999996 0
    vertex 420.5260968606146 1789.059759739062 0
  endloop
endfacet
facet normal 0 0 1
  outer loop
    vertex 3989.894122634729 1842.630000000007 0
    vertex 3845.544730980227 1214.121235909742 0
    vertex 4531.16 1530.130000000008 0
  endloop
endfacet
facet normal 0 0 1
  outer loop
    vertex 4531.16 905.1300000000083 0
    vertex 3845.544730980227 1214.121235909742 0
    vertex 3924.864295237381 560.735851833065 0
  endloop
endfacet
facet normal 0 0 1
  outer loop
    vertex 781.1599999999962 1240.0664905389 0
    vertex 420.5260968606146 1789.059759739062 0
    vertex 84.78469587890231 1225.60431553114 0
  endloop
endfacet
facet normal 0 -0 1
  outer loop
    vertex 469.0152663908939 680.1424155879195 0
    vertex 781.1599999999962 1240.0664905389 0
    vertex 84.78469587890231 1225.60431553114 0
  endloop
endfacet
facet normal 0 0 1
  outer loop
    vertex 1038.580071508209 1815.715090014408 0
    vertex 1393.533317072967 1247.033759769023 0
    vertex 1706.359752593435 1788.881865385232 0
  endloop
endfacet
facet normal 0 -0 1
  outer loop
    vertex 1038.580071508209 1815.715090014408 0
    vertex 1388.912216586209 2330.50488518468 0
    vertex 719.0009708393745 2339.513766549894 0
  endloop
endfacet
facet normal 0 0 1
  outer loop
    vertex 3354.496251005184 2259.799969465932 0
    vertex 4010.662428893049 2465.469110483396 0
    vertex 3591.01164419945 2875.897471840104 0
  endloop
endfacet
facet normal 0 0 1
  outer loop
    vertex 3924.864295237381 560.735851833065 0
    vertex 3845.544730980227 1214.121235909742 0
    vertex 3418.273205982628 772.3660820558092 0
  endloop
endfacet
facet normal 0 0 1
  outer loop
    vertex 781.1599999999962 1240.0664905389 0
    vertex 1393.533317072967 1247.033759769023 0
    vertex 1038.580071508209 1815.715090014408 0
  endloop
endfacet
facet normal 0 0 1
  outer loop
    vertex 1706.359752593435 1788.881865385232 0
    vertex 1388.912216586209 2330.50488518468 0
    vertex 1038.580071508209 1815.715090014408 0
  endloop
endfacet
facet normal 0 0 1
  outer loop
    vertex 3845.544730980227 1214.121235909742 0
    vertex 3182.019400065345 1232.362540784698 0
    vertex 3418.273205982628 772.3660820558092 0
  endloop
endfacet
facet normal 0 0 1
  outer loop
    vertex 3440.697327390494 1679.174641125938 0
    vertex 3182.019400065345 1232.362540784698 0
    vertex 3845.544730980227 1214.121235909742 0
  endloop
endfacet
facet normal 0 0 1
  outer loop
    vertex 3310.229225785222 193.81061908885 0
    vertex 3492.796919930426 -313.4240778962044 0
    vertex 3989.894122634724 -32.36999999999398 0
  endloop
endfacet
facet normal -0 0 1
  outer loop
    vertex 122.4734255089604 59.00013038493569 0
    vertex 536.6046972055024 -344.5032523353152 0
    vertex 781.1599999999978 157.5347358083533 0
  endloop
endfacet
facet normal 0 -0 1
  outer loop
    vertex 781.1599999999962 1240.0664905389 0
    vertex 1038.580071508209 1815.715090014408 0
    vertex 420.5260968606146 1789.059759739062 0
  endloop
endfacet
facet normal 0 -0 1
  outer loop
    vertex 468.6600000000024 -1053.604122634724 0
    vertex 536.6046972055024 -344.5032523353152 0
    vertex 48.23891528606941 -628.0599658026244 0
  endloop
endfacet
facet normal 0 0 1
  outer loop
    vertex 468.6600000000024 -1053.604122634724 0
    vertex 831.9641621796954 -718.3361460765236 0
    vertex 536.6046972055024 -344.5032523353152 0
  endloop
endfacet
facet normal 0 0 1
  outer loop
    vertex 3354.496251005184 2259.799969465932 0
    vertex 2900.79331030028 1793.13571302798 0
    vertex 3440.697327390494 1679.174641125938 0
  endloop
endfacet
facet normal 0 0 1
  outer loop
    vertex 3989.894122634729 1842.630000000007 0
    vertex 3440.697327390494 1679.174641125938 0
    vertex 3845.544730980227 1214.121235909742 0
  endloop
endfacet
facet normal 0 0 1
  outer loop
    vertex 1038.580071508209 1815.715090014408 0
    vertex 719.0009708393745 2339.513766549894 0
    vertex 420.5260968606146 1789.059759739062 0
  endloop
endfacet
facet normal 0 0 1
  outer loop
    vertex 1080.61926781824 2870.0547869518 0
    vertex 486.826780642449 2890.995432202901 0
    vertex 719.0009708393745 2339.513766549894 0
  endloop
endfacet
facet normal -0 0 1
  outer loop
    vertex 1406.159999999992 3405.13 0
    vertex 1714.780242972539 2865.70634576942 0
    vertex 2031.159999999992 3405.13 0
  endloop
endfacet
facet normal 0 -0 1
  outer loop
    vertex 1388.912216586209 2330.50488518468 0
    vertex 1714.780242972539 2865.70634576942 0
    vertex 1080.61926781824 2870.0547869518 0
  endloop
endfacet
facet normal -0 0 1
  outer loop
    vertex 1080.61926781824 2870.0547869518 0
    vertex 1714.780242972539 2865.70634576942 0
    vertex 1406.159999999992 3405.13 0
  endloop
endfacet
facet normal 0 0 1
  outer loop
    vertex 1718.660000000007 -1053.604122634725 0
    vertex 1093.660000000004 -1053.604122634724 0
    vertex 1406.160000000006 -1594.87 0
  endloop
endfacet
facet normal 0 0 1
  outer loop
    vertex 4531.16 -344.8699999999963 0
    vertex 3989.894122634724 -32.36999999999398 0
    vertex 3927.312316181562 -660.3232118823 0
  endloop
endfacet
facet normal 0 0 1
  outer loop
    vertex 2031.159999999992 3405.13 0
    vertex 1714.780242972539 2865.70634576942 0
    vertex 2343.659999999993 2863.864122634725 0
  endloop
endfacet
facet normal -0 0 1
  outer loop
    vertex 2343.659999999993 2863.864122634725 0
    vertex 2642.351339389521 2330.86246586425 0
    vertex 2968.218607366571 2865.869680835621 0
  endloop
endfacet
facet normal 0 -0 1
  outer loop
    vertex 2031.160000000008 -1594.87 0
    vertex 2343.660000000009 -1053.604122634728 0
    vertex 1718.660000000007 -1053.604122634725 0
  endloop
endfacet
facet normal 0 0 1
  outer loop
    vertex 2031.160000000008 -1594.87 0
    vertex 1718.660000000007 -1053.604122634725 0
    vertex 1406.160000000006 -1594.87 0
  endloop
endfacet
facet normal 0 0 1
  outer loop
    vertex 3281.159999999996 3405.13 0
    vertex 2968.218607366571 2865.869680835621 0
    vertex 3591.01164419945 2875.897471840104 0
  endloop
endfacet
facet normal 0 0 1
  outer loop
    vertex 2343.659999999993 2863.864122634725 0
    vertex 2968.218607366571 2865.869680835621 0
    vertex 2656.159999999994 3405.13 0
  endloop
endfacet
facet normal 0 0 1
  outer loop
    vertex -468.84 905.1299999999919 0
    vertex 84.78469587890231 1225.60431553114 0
    vertex -468.84 1530.129999999994 0
  endloop
endfacet
facet normal 0 0 1
  outer loop
    vertex 4531.16 905.1300000000083 0
    vertex 3924.864295237381 560.735851833065 0
    vertex 4531.16 280.1300000000058 0
  endloop
endfacet
facet normal -0 0 1
  outer loop
    vertex 2031.159999999992 3405.13 0
    vertex 2343.659999999993 2863.864122634725 0
    vertex 2656.159999999994 3405.13 0
  endloop
endfacet
facet normal 0 0 1
  outer loop
    vertex 2343.659999999993 2863.864122634725 0
    vertex 1714.780242972539 2865.70634576942 0
    vertex 2028.858556564915 2323.975615368583 0
  endloop
endfacet
facet normal 0 0 1
  outer loop
    vertex 2028.858556564915 2323.975615368583 0
    vertex 1714.780242972539 2865.70634576942 0
    vertex 1388.912216586209 2330.50488518468 0
  endloop
endfacet
facet normal -0 0 1
  outer loop
    vertex 2968.218607366571 2865.869680835621 0
    vertex 3354.496251005184 2259.799969465932 0
    vertex 3591.01164419945 2875.897471840104 0
  endloop
endfacet
facet normal 0 0 1
  outer loop
    vertex 781.1600000000037 -1594.87 0
    vertex 468.6600000000024 -1053.604122634724 0
    vertex 156.1600000000014 -1594.87 0
  endloop
endfacet
facet normal -0 0 1
  outer loop
    vertex 2028.858556564915 2323.975615368583 0
    vertex 2327.239887487501 1790.869260581149 0
    vertex 2642.351339389521 2330.86246586425 0
  endloop
endfacet
facet normal 0 0 1
  outer loop
    vertex 1406.160000000006 -1594.87 0
    vertex 1093.660000000004 -1053.604122634724 0
    vertex 781.1600000000037 -1594.87 0
  endloop
endfacet
facet normal 0 -0 1
  outer loop
    vertex 781.1600000000037 -1594.87 0
    vertex 1093.660000000004 -1053.604122634724 0
    vertex 468.6600000000024 -1053.604122634724 0
  endloop
endfacet
facet normal 0 0 1
  outer loop
    vertex 4531.16 280.1300000000058 0
    vertex 3989.894122634724 -32.36999999999398 0
    vertex 4531.16 -344.8699999999963 0
  endloop
endfacet
facet normal -0 0 1
  outer loop
    vertex 3281.159999999996 3405.13 0
    vertex 3591.01164419945 2875.897471840104 0
    vertex 3906.159999999998 3405.13 0
  endloop
endfacet
facet normal 0 0 1
  outer loop
    vertex 2343.659999999993 2863.864122634725 0
    vertex 2028.858556564915 2323.975615368583 0
    vertex 2642.351339389521 2330.86246586425 0
  endloop
endfacet
facet normal 0 0 1
  outer loop
    vertex 4531.16 -344.8699999999963 0
    vertex 3927.312316181562 -660.3232118823 0
    vertex 4531.16 -969.8699999999985 0
  endloop
endfacet
facet normal 0 0 1
  outer loop
    vertex 3924.864295237381 560.735851833065 0
    vertex 3989.894122634724 -32.36999999999398 0
    vertex 4531.16 280.1300000000058 0
  endloop
endfacet
facet normal -0 0 1
  outer loop
    vertex 2656.159999999994 3405.13 0
    vertex 2968.218607366571 2865.869680835621 0
    vertex 3281.159999999996 3405.13 0
  endloop
endfacet
facet normal 0 0 1
  outer loop
    vertex 2028.858556564915 2323.975615368583 0
    vertex 1706.359752593435 1788.881865385232 0
    vertex 2327.239887487501 1790.869260581149 0
  endloop
endfacet
facet normal 0 0 1
  outer loop
    vertex 1092.721305181514 698.5476031705255 0
    vertex 781.1599999999978 157.5347358083533 0
    vertex 1405.526850458331 157.3451943303687 0
  endloop
endfacet
facet normal 0 0 1
  outer loop
    vertex -468.84 2155.129999999996 0
    vertex 78.58596094354016 2388.41967201165 0
    vertex -468.84 2780.129999999999 0
  endloop
endfacet
facet normal -0 0 1
  outer loop
    vertex 2642.351339389521 2330.86246586425 0
    vertex 3354.496251005184 2259.799969465932 0
    vertex 2968.218607366571 2865.869680835621 0
  endloop
endfacet
facet normal -0 0 1
  outer loop
    vertex 2025.734845315242 155.7426434554311 0
    vertex 2633.471330331665 145.7392910203093 0
    vertex 2316.108091260704 689.3765775967123 0
  endloop
endfacet
facet normal 0 0 1
  outer loop
    vertex 1092.721305181514 698.5476031705255 0
    vertex 469.0152663908939 680.1424155879195 0
    vertex 781.1599999999978 157.5347358083533 0
  endloop
endfacet
facet normal 0 0 1
  outer loop
    vertex 3281.160000000005 -1594.87 0
    vertex 2967.105670075994 -1072.404069567814 0
    vertex 2656.160000000008 -1594.87 0
  endloop
endfacet
facet normal 0 0 1
  outer loop
    vertex 2028.717792523885 1241.519414872068 0
    vertex 1713.660980630763 697.4720946330028 0
    vertex 2316.108091260704 689.3765775967123 0
  endloop
endfacet
facet normal 0 0 1
  outer loop
    vertex 2028.717792523885 1241.519414872068 0
    vertex 1393.533317072967 1247.033759769023 0
    vertex 1713.660980630763 697.4720946330028 0
  endloop
endfacet
facet normal 0 0 1
  outer loop
    vertex 2343.659999999997 -383.7311415569188 0
    vertex 2960.566802019244 -346.5927836112467 0
    vertex 2633.471330331665 145.7392910203093 0
  endloop
endfacet
facet normal 0 0 1
  outer loop
    vertex 2656.160000000008 -1594.87 0
    vertex 2343.660000000009 -1053.604122634728 0
    vertex 2031.160000000008 -1594.87 0
  endloop
endfacet
facet normal -0 0 1
  outer loop
    vertex 1706.359752593435 1788.881865385232 0
    vertex 2028.717792523885 1241.519414872068 0
    vertex 2327.239887487501 1790.869260581149 0
  endloop
endfacet
facet normal 0 0 1
  outer loop
    vertex 1713.660980630763 697.4720946330028 0
    vertex 1405.526850458331 157.3451943303687 0
    vertex 2025.734845315242 155.7426434554311 0
  endloop
endfacet
facet normal 0 0 1
  outer loop
    vertex 1405.526850458331 157.3451943303687 0
    vertex 1718.659999999997 -383.7311415569193 0
    vertex 2025.734845315242 155.7426434554311 0
  endloop
endfacet
facet normal 0 -0 1
  outer loop
    vertex 2960.566802019244 -346.5927836112467 0
    vertex 3310.229225785222 193.81061908885 0
    vertex 2633.471330331665 145.7392910203093 0
  endloop
endfacet
facet normal 0 0 1
  outer loop
    vertex 781.1599999999978 157.5347358083533 0
    vertex 1097.748407899891 -356.7253667753146 0
    vertex 1405.526850458331 157.3451943303687 0
  endloop
endfacet
facet normal 0 -0 1
  outer loop
    vertex 1092.721305181514 698.5476031705255 0
    vertex 1393.533317072967 1247.033759769023 0
    vertex 781.1599999999962 1240.0664905389 0
  endloop
endfacet
facet normal 0 0 1
  outer loop
    vertex 2028.717792523885 1241.519414872068 0
    vertex 2596.445709626295 1241.625893542674 0
    vertex 2327.239887487501 1790.869260581149 0
  endloop
endfacet
facet normal 0 0 1
  outer loop
    vertex 2025.734845315242 155.7426434554311 0
    vertex 1718.659999999997 -383.7311415569193 0
    vertex 2343.659999999997 -383.7311415569188 0
  endloop
endfacet
facet normal 0 0 1
  outer loop
    vertex 1092.721305181514 698.5476031705255 0
    vertex 781.1599999999962 1240.0664905389 0
    vertex 469.0152663908939 680.1424155879195 0
  endloop
endfacet
facet normal 0 0 1
  outer loop
    vertex -468.84 -344.8700000000049 0
    vertex 122.4734255089604 59.00013038493569 0
    vertex -468.84 280.1299999999919 0
  endloop
endfacet
facet normal 0 0 1
  outer loop
    vertex 2028.858556564915 2323.975615368583 0
    vertex 1388.912216586209 2330.50488518468 0
    vertex 1706.359752593435 1788.881865385232 0
  endloop
endfacet
facet normal 0 0 1
  outer loop
    vertex 1706.359752593435 1788.881865385232 0
    vertex 1393.533317072967 1247.033759769023 0
    vertex 2028.717792523885 1241.519414872068 0
  endloop
endfacet
facet normal 0 0 1
  outer loop
    vertex 1713.660980630763 697.4720946330028 0
    vertex 2025.734845315242 155.7426434554311 0
    vertex 2316.108091260704 689.3765775967123 0
  endloop
endfacet
facet normal -0 0 1
  outer loop
    vertex 1097.748407899891 -356.7253667753146 0
    vertex 1718.659999999997 -383.7311415569193 0
    vertex 1405.526850458331 157.3451943303687 0
  endloop
endfacet
facet normal 0 0 1
  outer loop
    vertex 4531.16 2155.130000000005 0
    vertex 3989.894122634729 1842.630000000007 0
    vertex 4531.16 1530.130000000008 0
  endloop
endfacet
facet normal -0 0 1
  outer loop
    vertex 781.1599999999949 3405.13 0
    vertex 1080.61926781824 2870.0547869518 0
    vertex 1406.159999999992 3405.13 0
  endloop
endfacet
facet normal 0 0 1
  outer loop
    vertex 1713.660980630763 697.4720946330028 0
    vertex 1393.533317072967 1247.033759769023 0
    vertex 1092.721305181514 698.5476031705255 0
  endloop
endfacet
facet normal 0 0 1
  outer loop
    vertex 2025.734845315242 155.7426434554311 0
    vertex 2343.659999999997 -383.7311415569188 0
    vertex 2633.471330331665 145.7392910203093 0
  endloop
endfacet
facet normal 0 0 1
  outer loop
    vertex 1713.660980630763 697.4720946330028 0
    vertex 1092.721305181514 698.5476031705255 0
    vertex 1405.526850458331 157.3451943303687 0
  endloop
endfacet
facet normal 0 0 1
  outer loop
    vertex 2967.105670075994 -1072.404069567814 0
    vertex 2343.660000000009 -1053.604122634728 0
    vertex 2656.160000000008 -1594.87 0
  endloop
endfacet
facet normal -0 0 1
  outer loop
    vertex 2028.717792523885 1241.519414872068 0
    vertex 2316.108091260704 689.3765775967123 0
    vertex 2596.445709626295 1241.625893542674 0
  endloop
endfacet
facet normal 0 0 1
  outer loop
    vertex 3418.273205982628 772.3660820558092 0
    vertex 2890.362116112143 693.7516790460419 0
    vertex 3310.229225785222 193.81061908885 0
  endloop
endfacet
facet normal 0 0 1
  outer loop
    vertex 3927.312316181562 -660.3232118823 0
    vertex 3275.98213303138 -721.6450130763303 0
    vertex 3571.891394093066 -1130.241756632649 0
  endloop
endfacet
facet normal 0 0 1
  outer loop
    vertex 3492.796919930426 -313.4240778962044 0
    vertex 3275.98213303138 -721.6450130763303 0
    vertex 3927.312316181562 -660.3232118823 0
  endloop
endfacet
facet normal 0 0 1
  outer loop
    vertex -468.84 -969.8700000000026 0
    vertex 48.23891528606941 -628.0599658026244 0
    vertex -468.84 -344.8700000000049 0
  endloop
endfacet
facet normal 0 0 1
  outer loop
    vertex 3906.160000000003 -1594.87 0
    vertex 3571.891394093066 -1130.241756632649 0
    vertex 3281.160000000005 -1594.87 0
  endloop
endfacet
facet normal 0 0 1
  outer loop
    vertex 4531.16 2780.130000000003 0
    vertex 4010.662428893049 2465.469110483396 0
    vertex 4531.16 2155.130000000005 0
  endloop
endfacet
facet normal 0 0 1
  outer loop
    vertex 84.78469587890231 1225.60431553114 0
    vertex -46.16149381244645 592.6299999999919 0
    vertex 469.0152663908939 680.1424155879195 0
  endloop
endfacet
facet normal -0 0 1
  outer loop
    vertex 156.1599999999971 3405.13 0
    vertex 486.826780642449 2890.995432202901 0
    vertex 781.1599999999949 3405.13 0
  endloop
endfacet
facet normal 0 0 1
  outer loop
    vertex 781.1599999999949 3405.13 0
    vertex 486.826780642449 2890.995432202901 0
    vertex 1080.61926781824 2870.0547869518 0
  endloop
endfacet
facet normal 0 0 1
  outer loop
    vertex 420.5260968606146 1789.059759739062 0
    vertex -82.15222737102772 1842.629999999996 0
    vertex 84.78469587890231 1225.60431553114 0
  endloop
endfacet
facet normal -0 0 1
  outer loop
    vertex -468.84 -344.8700000000049 0
    vertex 48.23891528606941 -628.0599658026244 0
    vertex 122.4734255089604 59.00013038493569 0
  endloop
endfacet
facet normal 0 -0 1
  outer loop
    vertex 3281.160000000005 -1594.87 0
    vertex 3571.891394093066 -1130.241756632649 0
    vertex 2967.105670075994 -1072.404069567814 0
  endloop
endfacet
facet normal 0 0 1
  outer loop
    vertex 4531.16 2155.130000000005 0
    vertex 4010.662428893049 2465.469110483396 0
    vertex 3989.894122634729 1842.630000000007 0
  endloop
endfacet
facet normal 0 -0 1
  outer loop
    vertex 2890.362116112143 693.7516790460419 0
    vertex 3182.019400065345 1232.362540784698 0
    vertex 2596.445709626295 1241.625893542674 0
  endloop
endfacet
facet normal 0 0 1
  outer loop
    vertex 719.0009708393745 2339.513766549894 0
    vertex 486.826780642449 2890.995432202901 0
    vertex 78.58596094354016 2388.41967201165 0
  endloop
endfacet
facet normal 0 -0 1
  outer loop
    vertex 2596.445709626295 1241.625893542674 0
    vertex 2900.79331030028 1793.13571302798 0
    vertex 2327.239887487501 1790.869260581149 0
  endloop
endfacet
facet normal 0 0 1
  outer loop
    vertex 2642.351339389521 2330.86246586425 0
    vertex 2900.79331030028 1793.13571302798 0
    vertex 3354.496251005184 2259.799969465932 0
  endloop
endfacet
facet normal -0 0 1
  outer loop
    vertex -468.84 905.1299999999919 0
    vertex -46.16149381244645 592.6299999999919 0
    vertex 84.78469587890231 1225.60431553114 0
  endloop
endfacet
facet normal 0 0 1
  outer loop
    vertex 122.4734255089604 59.00013038493569 0
    vertex -46.16149381244645 592.6299999999919 0
    vertex -468.84 280.1299999999919 0
  endloop
endfacet
facet normal 0 0 1
  outer loop
    vertex 3310.229225785222 193.81061908885 0
    vertex 2890.362116112143 693.7516790460419 0
    vertex 2633.471330331665 145.7392910203093 0
  endloop
endfacet
facet normal 0 0 1
  outer loop
    vertex 2316.108091260704 689.3765775967123 0
    vertex 2890.362116112143 693.7516790460419 0
    vertex 2596.445709626295 1241.625893542674 0
  endloop
endfacet
facet normal -0 0 1
  outer loop
    vertex -468.84 2155.129999999996 0
    vertex -82.15222737102772 1842.629999999996 0
    vertex 78.58596094354016 2388.41967201165 0
  endloop
endfacet
facet normal 0 0 1
  outer loop
    vertex 84.78469587890231 1225.60431553114 0
    vertex -82.15222737102772 1842.629999999996 0
    vertex -468.84 1530.129999999994 0
  endloop
endfacet
facet normal -0 0 1
  outer loop
    vertex -468.84 3405.13 0
    vertex -11.30824526945116 2947.59824526945 0
    vertex 156.1599999999971 3405.13 0
  endloop
endfacet
facet normal 0 0 1
  outer loop
    vertex 4531.16 -969.8699999999985 0
    vertex 4073.628245269451 -1137.33824526945 0
    vertex 4531.16 -1594.87 0
  endloop
endfacet
facet normal 0 0 1
  outer loop
    vertex 4531.16 3405.13 0
    vertex 4073.62824526945 2947.598245269452 0
    vertex 4531.16 2780.130000000003 0
  endloop
endfacet
facet normal 0 0 1
  outer loop
    vertex 156.1600000000014 -1594.87 0
    vertex -11.3082452694498 -1137.338245269451 0
    vertex -468.84 -1594.87 0
  endloop
endfacet
facet normal 0 0 1
  outer loop
    vertex -468.84 -1594.87 0
    vertex -11.3082452694498 -1137.338245269451 0
    vertex -468.84 -969.8700000000026 0
  endloop
endfacet
facet normal 0 0 1
  outer loop
    vertex -468.84 2780.129999999999 0
    vertex -11.30824526945116 2947.59824526945 0
    vertex -468.84 3405.13 0
  endloop
endfacet
facet normal -0 0 1
  outer loop
    vertex 3906.159999999998 3405.13 0
    vertex 4073.62824526945 2947.598245269452 0
    vertex 4531.16 3405.13 0
  endloop
endfacet
facet normal 0 0 1
  outer loop
    vertex 4531.16 -1594.87 0
    vertex 4073.628245269451 -1137.33824526945 0
    vertex 3906.160000000003 -1594.87 0
  endloop
endfacet
facet normal -0 0 1
  outer loop
    vertex 2596.445709626295 1241.625893542674 0
    vertex 3182.019400065345 1232.362540784698 0
    vertex 2900.79331030028 1793.13571302798 0
  endloop
endfacet
facet normal 0 0 1
  outer loop
    vertex 3989.894122634724 -32.36999999999398 0
    vertex 3492.796919930426 -313.4240778962044 0
    vertex 3927.312316181562 -660.3232118823 0
  endloop
endfacet
facet normal 0 0 1
  outer loop
    vertex 2960.566802019244 -346.5927836112467 0
    vertex 3492.796919930426 -313.4240778962044 0
    vertex 3310.229225785222 193.81061908885 0
  endloop
endfacet
facet normal 0 0 1
  outer loop
    vertex 781.1599999999978 157.5347358083533 0
    vertex 536.6046972055024 -344.5032523353152 0
    vertex 1097.748407899891 -356.7253667753146 0
  endloop
endfacet
facet normal 0 0 1
  outer loop
    vertex 3418.273205982628 772.3660820558092 0
    vertex 3182.019400065345 1232.362540784698 0
    vertex 2890.362116112143 693.7516790460419 0
  endloop
endfacet
facet normal 0 0 1
  outer loop
    vertex 2327.239887487501 1790.869260581149 0
    vertex 2900.79331030028 1793.13571302798 0
    vertex 2642.351339389521 2330.86246586425 0
  endloop
endfacet
facet normal 0 0 1
  outer loop
    vertex 48.23891528606941 -628.0599658026244 0
    vertex 536.6046972055024 -344.5032523353152 0
    vertex 122.4734255089604 59.00013038493569 0
  endloop
endfacet
facet normal 0 0 1
  outer loop
    vertex -468.84 280.1299999999919 0
    vertex -46.16149381244645 592.6299999999919 0
    vertex -468.84 905.1299999999919 0
  endloop
endfacet
facet normal 0 -0 1
  outer loop
    vertex 2633.471330331665 145.7392910203093 0
    vertex 2890.362116112143 693.7516790460419 0
    vertex 2316.108091260704 689.3765775967123 0
  endloop
endfacet
facet normal 0 0 1
  outer loop
    vertex 2900.79331030028 1793.13571302798 0
    vertex 3182.019400065345 1232.362540784698 0
    vertex 3440.697327390494 1679.174641125938 0
  endloop
endfacet
facet normal 0 0 1
  outer loop
    vertex 4531.16 2780.130000000003 0
    vertex 4073.62824526945 2947.598245269452 0
    vertex 4010.662428893049 2465.469110483396 0
  endloop
endfacet
facet normal -0 0 1
  outer loop
    vertex -468.84 -969.8700000000026 0
    vertex -11.3082452694498 -1137.338245269451 0
    vertex 48.23891528606941 -628.0599658026244 0
  endloop
endfacet
facet normal 0 -0 1
  outer loop
    vertex 3906.160000000003 -1594.87 0
    vertex 4073.628245269451 -1137.33824526945 0
    vertex 3571.891394093066 -1130.241756632649 0
  endloop
endfacet
facet normal 0 0 1
  outer loop
    vertex -468.84 1530.129999999994 0
    vertex -82.15222737102772 1842.629999999996 0
    vertex -468.84 2155.129999999996 0
  endloop
endfacet
facet normal 0 0 1
  outer loop
    vertex 3927.312316181562 -660.3232118823 0
    vertex 4073.628245269451 -1137.33824526945 0
    vertex 4531.16 -969.8699999999985 0
  endloop
endfacet
facet normal 0 0 1
  outer loop
    vertex 78.58596094354016 2388.41967201165 0
    vertex -11.30824526945116 2947.59824526945 0
    vertex -468.84 2780.129999999999 0
  endloop
endfacet
facet normal 0 0 1
  outer loop
    vertex 468.6600000000024 -1053.604122634724 0
    vertex -11.3082452694498 -1137.338245269451 0
    vertex 156.1600000000014 -1594.87 0
  endloop
endfacet
facet normal 0 0 1
  outer loop
    vertex 3591.01164419945 2875.897471840104 0
    vertex 4073.62824526945 2947.598245269452 0
    vertex 3906.159999999998 3405.13 0
  endloop
endfacet
facet normal 0 0 1
  outer loop
    vertex 156.1599999999971 3405.13 0
    vertex -11.30824526945116 2947.59824526945 0
    vertex 486.826780642449 2890.995432202901 0
  endloop
endfacet
facet normal 0 0 1
  outer loop
    vertex 1097.748407899891 -356.7253667753146 0
    vertex 831.9641621796954 -718.3361460765236 0
    vertex 1406.159999999998 -718.6676320958188 0
  endloop
endfacet
facet normal -0 0 1
  outer loop
    vertex 1406.159999999998 -718.6676320958188 0
    vertex 2031.160000000003 -718.6676320958227 0
    vertex 1718.659999999997 -383.7311415569193 0
  endloop
endfacet
facet normal 0 -0 1
  outer loop
    vertex 1718.660000000007 -1053.604122634725 0
    vertex 2031.160000000003 -718.6676320958227 0
    vertex 1406.159999999998 -718.6676320958188 0
  endloop
endfacet
facet normal 0 0 1
  outer loop
    vertex 1718.660000000007 -1053.604122634725 0
    vertex 1406.159999999998 -718.6676320958188 0
    vertex 1093.660000000004 -1053.604122634724 0
  endloop
endfacet
facet normal 0 0 1
  outer loop
    vertex 2343.660000000009 -1053.604122634728 0
    vertex 2031.160000000003 -718.6676320958227 0
    vertex 1718.660000000007 -1053.604122634725 0
  endloop
endfacet
facet normal -0 0 1
  outer loop
    vertex 1718.659999999997 -383.7311415569193 0
    vertex 2031.160000000003 -718.6676320958227 0
    vertex 2343.659999999997 -383.7311415569188 0
  endloop
endfacet
facet normal -0 0 1
  outer loop
    vertex 2343.659999999997 -383.7311415569188 0
    vertex 2656.160000000008 -718.6676320958281 0
    vertex 2960.566802019244 -346.5927836112467 0
  endloop
endfacet
facet normal 0 0 1
  outer loop
    vertex 2343.659999999997 -383.7311415569188 0
    vertex 2031.160000000003 -718.6676320958227 0
    vertex 2656.160000000008 -718.6676320958281 0
  endloop
endfacet
facet normal 0 0 1
  outer loop
    vertex 1097.748407899891 -356.7253667753146 0
    vertex 1406.159999999998 -718.6676320958188 0
    vertex 1718.659999999997 -383.7311415569193 0
  endloop
endfacet
facet normal 0 0 1
  outer loop
    vertex 2967.105670075994 -1072.404069567814 0
    vertex 2656.160000000008 -718.6676320958281 0
    vertex 2343.660000000009 -1053.604122634728 0
  endloop
endfacet
facet normal 0 0 1
  outer loop
    vertex 2656.160000000008 -718.6676320958281 0
    vertex 2031.160000000003 -718.6676320958227 0
    vertex 2343.660000000009 -1053.604122634728 0
  endloop
endfacet
facet normal 0 0 1
  outer loop
    vertex 1406.159999999998 -718.6676320958188 0
    vertex 831.9641621796954 -718.3361460765236 0
    vertex 1093.660000000004 -1053.604122634724 0
  endloop
endfacet
facet normal 0 0 1
  outer loop
    vertex 1093.660000000004 -1053.604122634724 0
    vertex 831.9641621796954 -718.3361460765236 0
    vertex 468.6600000000024 -1053.604122634724 0
  endloop
endfacet
facet normal 0 0 1
  outer loop
    vertex 48.23891528606941 -628.0599658026244 0
    vertex -11.3082452694498 -1137.338245269451 0
    vertex 468.6600000000024 -1053.604122634724 0
  endloop
endfacet
facet normal -0 0 1
  outer loop
    vertex 3571.891394093066 -1130.241756632649 0
    vertex 4073.628245269451 -1137.33824526945 0
    vertex 3927.312316181562 -660.3232118823 0
  endloop
endfacet
facet normal 0 -0 1
  outer loop
    vertex 4010.662428893049 2465.469110483396 0
    vertex 4073.62824526945 2947.598245269452 0
    vertex 3591.01164419945 2875.897471840104 0
  endloop
endfacet
facet normal -0 0 1
  outer loop
    vertex 2656.160000000008 -718.6676320958281 0
    vertex 3275.98213303138 -721.6450130763303 0
    vertex 2960.566802019244 -346.5927836112467 0
  endloop
endfacet
facet normal 0 -0 1
  outer loop
    vertex 2967.105670075994 -1072.404069567814 0
    vertex 3275.98213303138 -721.6450130763303 0
    vertex 2656.160000000008 -718.6676320958281 0
  endloop
endfacet
facet normal 0 0 1
  outer loop
    vertex 486.826780642449 2890.995432202901 0
    vertex -11.30824526945116 2947.59824526945 0
    vertex 78.58596094354016 2388.41967201165 0
  endloop
endfacet
facet normal 0 0 1
  outer loop
    vertex 3571.891394093066 -1130.241756632649 0
    vertex 3275.98213303138 -721.6450130763303 0
    vertex 2967.105670075994 -1072.404069567814 0
  endloop
endfacet
facet normal 0 0 1
  outer loop
    vertex 536.6046972055024 -344.5032523353152 0
    vertex 831.9641621796954 -718.3361460765236 0
    vertex 1097.748407899891 -356.7253667753146 0
  endloop
endfacet
facet normal -0 0 1
  outer loop
    vertex 2960.566802019244 -346.5927836112467 0
    vertex 3275.98213303138 -721.6450130763303 0
    vertex 3492.796919930426 -313.4240778962044 0
  endloop
endfacet
endsolid Created by Gmsh
